<?xml version="1.0" encoding="UTF-8"?>
<svg version="1.1" xmlns="http://www.w3.org/2000/svg" width="96" height="96">
<path d="M0 0 C4.49587586 4.73554572 7.68430132 9.58025568 8.6875 16.11328125 C8.375 19.67578125 8.375 19.67578125 7.6875 22.11328125 C6.98882812 22.22285156 6.29015625 22.33242188 5.5703125 22.4453125 C4.66023438 22.60386719 3.75015625 22.76242188 2.8125 22.92578125 C1.90757813 23.07660156 1.00265625 23.22742188 0.0703125 23.3828125 C-2.65662478 23.94379426 -2.65662478 23.94379426 -4.3125 27.11328125 C-2.6728125 26.55640625 -2.6728125 26.55640625 -1 25.98828125 C0.216875 25.69953125 1.43375 25.41078125 2.6875 25.11328125 C3.6775 25.77328125 4.6675 26.43328125 5.6875 27.11328125 C5.38913125 31.19098752 4.5647228 33.47032614 2 36.55078125 C0.60243812 38.26469835 0.60243812 38.26469835 -0.3125 40.11328125 C0.28634432 43.66797005 0.28634432 43.66797005 1.6875 47.11328125 C2.4254317 55.08294361 0.17663096 61.46419042 -4.5625 67.80078125 C-5.78728308 69.25982637 -7.03652497 70.69878701 -8.3125 72.11328125 C-8.83714844 72.70496094 -9.36179688 73.29664062 -9.90234375 73.90625 C-15.65213271 79.5998063 -22.95937668 80.99783931 -30.84765625 81.20703125 C-39.29518149 80.83934789 -47.28696319 79.63562596 -53.8125 73.92578125 C-56.99107985 67.96594403 -58.19692315 61.70876227 -56.3125 55.11328125 C-53.7789092 53.17086164 -52.53062786 53.11328125 -49.3125 53.11328125 C-49.3125 51.79328125 -49.3125 50.47328125 -49.3125 49.11328125 C-50.26125 49.15453125 -51.21 49.19578125 -52.1875 49.23828125 C-55.3125 49.11328125 -55.3125 49.11328125 -57.3125 47.11328125 C-57.13571349 43.7543376 -56.70141562 42.46788078 -54.1875 40.17578125 C-53.259375 39.15484375 -53.259375 39.15484375 -52.3125 38.11328125 C-52.52796654 35.38640593 -52.52796654 35.38640593 -53.3125 32.11328125 C-54.00127543 22.87221088 -53.12081955 15.22830668 -47.1875 7.86328125 C-36.39416031 -3.56629741 -13.34147243 -10.88501889 0 0 Z M-42.5859375 10.33203125 C-47.26448164 15.15876457 -49.18995716 19.93392545 -49.38671875 26.64453125 C-49.13395703 31.43978216 -48.52999317 35.29634534 -45.0078125 38.87890625 C-40.58724842 42.09756581 -35.25078479 43.49312444 -30.1015625 45.140625 C-29.03679688 45.48222656 -27.97203125 45.82382812 -26.875 46.17578125 C-25.88628906 46.47613281 -24.89757812 46.77648438 -23.87890625 47.0859375 C-21.28666578 48.1236228 -20.00966579 48.92728777 -18.3125 51.11328125 C-17.18812776 54.72733488 -17.19693916 56.71267032 -18.25 60.36328125 C-20.70808664 63.64073011 -22.24366769 64.35206247 -26.19140625 65.0546875 C-29.88886202 65.15682716 -32.18612941 64.00090123 -35.3125 62.11328125 C-36.075625 61.04078125 -36.83875 59.96828125 -37.625 58.86328125 C-39.96134125 55.87069296 -39.96134125 55.87069296 -42.7734375 55.9140625 C-46.17781365 56.24084359 -49.23512872 56.57459561 -52.3125 58.11328125 C-52.80145657 63.00284695 -52.87159621 66.16980639 -50.3125 70.48828125 C-44.29524354 75.75338066 -39.01645604 76.37612383 -31.25 76.48828125 C-30.57735107 76.5022998 -29.90470215 76.51631836 -29.21166992 76.53076172 C-22.39510831 76.46575477 -16.90858215 74.27413922 -11.79296875 69.6796875 C-6.24745376 63.81226926 -2.51678732 57.32563135 -2.3125 49.11328125 C-3.79196259 43.47283014 -6.56033007 40.30344111 -11.3125 37.11328125 C-14.49078941 35.54738386 -17.7575439 34.26096602 -21.0625 32.98828125 C-22.76898483 32.32762419 -24.47229963 31.65870305 -26.171875 30.98046875 C-26.91920898 30.69284668 -27.66654297 30.40522461 -28.43652344 30.10888672 C-30.3125 29.11328125 -30.3125 29.11328125 -32.3125 26.11328125 C-32.84940713 23.04443315 -32.82817535 20.18515375 -32.3125 17.11328125 C-30.13078823 14.1316085 -28.54906455 13.32410537 -24.9296875 12.70703125 C-20.29133065 12.43011442 -18.03739437 12.56591203 -14.25 15.42578125 C-12.3125 18.11328125 -12.3125 18.11328125 -11.3125 21.11328125 C-6.3625 20.12328125 -1.4125 19.13328125 3.6875 18.11328125 C2.54867978 10.14153972 0.44820126 6.26413907 -5.625 1.17578125 C-18.67349043 -3.98292427 -32.69160717 1.37420132 -42.5859375 10.33203125 Z " fill="#000000" transform="translate(72.3125,9.88671875)"/>
<path d="M0 0 C4.87678741 1.1879354 8.19052142 2.07206114 11.5625 5.9375 C13 9 13 9 13 13 C11.68 13 10.36 13 9 13 C8.566875 12.2575 8.13375 11.515 7.6875 10.75 C5.38243104 6.99359132 2.89499489 5.98424268 -1 4 C-0.67 2.68 -0.34 1.36 0 0 Z " fill="#000000" transform="translate(54,46)"/>
</svg>
